<?xml version="1.0" encoding="UTF-8" standalone="no"?>
<svg
   viewBox="0 0 448 512"
   version="1.1"
   id="svg4"
   sodipodi:docname="lock-solid.svg"
   xmlns:inkscape="http://www.inkscape.org/namespaces/inkscape"
   xmlns:sodipodi="http://sodipodi.sourceforge.net/DTD/sodipodi-0.dtd"
   xmlns="http://www.w3.org/2000/svg"
   xmlns:svg="http://www.w3.org/2000/svg">
  <defs
     id="defs8" />
  <sodipodi:namedview
     id="namedview6"
     pagecolor="#ffffff"
     bordercolor="#000000"
     borderopacity="0.25"
     inkscape:showpageshadow="2"
     inkscape:pageopacity="0.0"
     inkscape:pagecheckerboard="0"
     inkscape:deskcolor="#d1d1d1" />
  <!--!Font Awesome Free 6.7.2 by @fontawesome - https://fontawesome.com License - https://fontawesome.com/license/free Copyright 2025 Fonticons, Inc.-->
  <path
     d="M144 144l0 48 160 0 0-48c0-44.2-35.8-80-80-80s-80 35.8-80 80zM80 192l0-48C80 64.5 144.5 0 224 0s144 64.5 144 144l0 48 16 0c35.3 0 64 28.7 64 64l0 192c0 35.3-28.7 64-64 64L64 512c-35.3 0-64-28.7-64-64L0 256c0-35.3 28.7-64 64-64l16 0z"
     id="path2" />
</svg>
